<svg t="1603336451715" viewBox="0 0 1024 1024" version="1.1" xmlns="http://www.w3.org/2000/svg" p-id="3582" width="128" height="128"><path d="M1024 460.8V358.4h-102.404267V204.8c0-56.32-46.08-102.404267-102.4-102.404267H665.6V0h-102.4v102.4h-102.4V0H358.4v102.4H204.8c-56.32 0-102.4 46.08-102.4 102.4v153.6H0v102.4h102.4v102.4H0v102.4h102.4v153.595733c0 56.32 46.08 102.4 102.4 102.4h153.6V1024h102.4v-102.404267h102.4V1024h102.4v-102.404267h153.595733c56.32 0 102.4-46.08 102.4-102.4V665.6H1024v-102.4h-102.404267v-102.4H1024z m-204.804267 358.395733H204.8V204.8h614.395733v614.395733z" p-id="3583"></path><path d="M307.2 307.2h409.6v409.6H307.2z" p-id="3584"></path></svg>