<svg t="1607927513364" class="icon" viewBox="0 0 1024 1024" version="1.1" xmlns="http://www.w3.org/2000/svg" p-id="4023" width="128" height="128"><path d="M238.208 618.976V742.08a38.896 38.896 0 0 0 39.28 39.28h123.104a78.008 78.008 0 0 0 54.552-22.912l300.208-300.752c30.56-30.656 30.56-80.264 0-110.92l-82.56-83.104c-30.656-30.56-80.256-30.56-110.92 0L261.12 564.432a77.992 77.992 0 0 0-22.912 54.544z m0 0" p-id="4024"></path><path d="M849.72 1019.016H168.56c-93.048-0.096-168.456-75.512-168.56-168.56V169.296C0.104 76.248 75.512 0.832 168.56 0.736h365.488a53.472 53.472 0 1 1 0 106.744H168.56a61.824 61.824 0 0 0-61.824 61.824v681.16a61.824 61.824 0 0 0 61.824 61.824h681.16a61.832 61.832 0 0 0 61.824-61.824V632.256a53.456 53.456 0 0 1 106.736 0v218.2c-0.096 93.048-75.504 168.464-168.56 168.56z m0 0" p-id="4025"></path></svg>